<?xml version="1.0" encoding="UTF-8"?>
<svg width="32px" height="26px" viewBox="0 0 32 26" version="1.1" xmlns="http://www.w3.org/2000/svg" xmlns:xlink="http://www.w3.org/1999/xlink">
    <!-- Generator: Sketch 56.2 (81672) - https://sketch.com -->
    <title>crown (1)</title>
    <desc>Created with Sketch.</desc>
    <g id="Symbols" stroke="none" stroke-width="1" fill="none" fill-rule="evenodd">
        <g id="Navbar" transform="translate(-16.000000, -12.000000)" fill="#AB9D78" fill-rule="nonzero">
            <g id="crown-(1)" transform="translate(16.000000, 12.000000)">
                <path d="M28.4139374,10.8063041 C26.783441,12.0316181 24.4947808,13.6610878 23.4624645,13.6610878 C23.2579896,13.6610878 23.1923721,13.5965062 23.1446502,13.5357439 C22.7231073,12.9913143 22.8371095,11.0823383 23.484337,7.86402279 C23.5482975,7.54528143 23.3878991,7.22480401 23.1025622,7.09876577 C22.8172254,6.97203309 22.4858237,7.07584972 22.312832,7.34528686 C20.0854811,10.8247064 19.0654267,11.5545477 18.6031213,11.5545477 C17.9472773,11.5545477 17.2808285,9.5782124 16.6193507,5.67970704 C16.5666578,5.36860437 16.3161181,5.14187441 16.0185194,5.12381934 L16.0185194,5.12 C16.0122227,5.12 16.0062575,5.12138885 15.9999609,5.12138885 C15.9936642,5.12138885 15.9867048,5.12 15.9807396,5.12 L15.9807396,5.12381934 C15.6841351,5.14187441 15.4342582,5.36860437 15.3805711,5.67970704 C14.7184305,9.5782124 14.0513188,11.5545477 13.3961377,11.5545477 C12.9335009,11.5545477 11.9141093,10.8243591 9.68708979,7.34528686 C9.5144295,7.07584972 9.1830278,6.97203309 8.89702812,7.09876577 C8.61135985,7.22480401 8.45096143,7.54528143 8.51525336,7.86402279 C9.16214949,11.0823383 9.27714588,12.9913143 8.85460871,13.5357439 C8.80788107,13.5968534 8.74126932,13.6610878 8.53712587,13.6610878 C7.50480956,13.6610878 5.21614938,12.0319653 3.58499019,10.8063041 C3.32715966,10.6122121 2.97355404,10.6438085 2.74985789,10.8788716 C2.52583034,11.112893 2.49633558,11.483369 2.68125774,11.7538478 C6.41052113,16.7509345 5.70861232,22.4861956 5.70861232,22.4861956 C5.69502485,22.5657073 5.68773401,22.6469551 5.68773401,22.7323695 C5.68773401,24.141359 7.5707585,24.6989828 9.21086554,25.0274461 C11.017999,25.3902835 13.3981261,25.5923613 15.9270525,25.5993056 L15.9270525,25.6 C15.9512448,25.6 15.9757686,25.6 15.9999609,25.5993056 C16.0241532,25.6 16.0483455,25.6 16.0732007,25.6 L16.0732007,25.5993056 C18.6014643,25.5920141 20.9819227,25.3899363 22.7883934,25.0274461 C24.4288319,24.6989828 26.3121877,24.1403174 26.3121877,22.7323695 C26.3121877,22.6469551 26.3048969,22.5660545 26.2913094,22.4861956 C26.2913094,22.4861956 25.589732,16.7498929 29.3183326,11.7538478 C29.5035862,11.4837163 29.4744228,11.112893 29.2503953,10.8788716 C29.0253735,10.6445029 28.6724307,10.6125593 28.4139374,10.8063041 Z M16.0725379,23.6552611 L16.0675668,23.6552611 C16.0443687,23.6552611 16.0221648,23.6563027 15.9992981,23.6563027 C15.9761,23.6563027 15.9545588,23.6552611 15.9313607,23.6552611 L15.9263897,23.6552611 C11.9074812,23.6431086 9.25063374,23.1531914 8.07813451,22.7327167 C9.25063374,22.3115475 11.9074812,21.8216303 15.9263897,21.809825 L15.9360003,21.809825 C15.9568787,21.809825 15.977757,21.809825 15.9989667,21.809825 C16.0201764,21.809825 16.0400605,21.809825 16.061933,21.809825 L16.071875,21.809825 C20.0904521,21.8216303 22.7469682,22.3115475 23.9197988,22.7327167 C22.747631,23.1531914 20.0911149,23.6431086 16.0725379,23.6552611 Z" id="Shape"></path>
                <circle id="Oval" cx="16" cy="1.92" r="1.92"></circle>
                <circle id="Oval" cx="7.04" cy="4.48" r="1.92"></circle>
                <circle id="Oval" cx="23.68" cy="4.48" r="1.92"></circle>
                <circle id="Oval" cx="1.28" cy="10.24" r="1.28"></circle>
                <circle id="Oval" cx="30.72" cy="10.24" r="1.28"></circle>
            </g>
        </g>
    </g>
</svg>